<svg width="376" height="376" viewBox="0 0 376 376" fill="none" xmlns="http://www.w3.org/2000/svg">
<rect width="376" height="376" rx="28" fill="url(#paint0_radial_2_50)"/>
<g clip-path="url(#clip0_2_50)">
<path d="M278.324 252.954L278.775 253.632L279 253.858C277.95 246.925 275.959 240.176 273.022 233.618C270.089 227.059 266.242 221.143 261.493 215.865C256.74 210.591 251.159 206.14 244.748 202.522C238.333 198.903 231.282 196.492 223.588 195.285L221.56 194.832C219.177 194.412 213.924 194.186 205.797 194.158V176.274C208.762 179.499 212.276 182.141 216.33 184.203C220.47 186.315 225.029 187.749 229.998 188.5H237.684C242.95 188.048 247.658 186.618 251.798 184.203C255.943 181.792 259.403 178.852 262.192 175.383C264.98 171.918 267.129 168.146 268.634 164.075C270.139 160.005 270.891 156.011 270.891 152.089C270.891 147.869 270.364 144.025 269.301 140.555C268.237 137.091 266.8 134.038 264.98 131.396C263.16 128.759 261.115 126.534 258.84 124.725C256.569 122.915 254.222 121.409 251.794 120.202L251.343 119.749C250.429 119.749 249.897 119.677 249.749 119.523C249.595 119.374 248.915 119.148 247.708 118.845L247.478 119.297C247.627 119.6 247.857 119.862 248.158 120.088C248.465 120.315 248.613 120.505 248.613 120.654L247.708 120.202L246.338 119.749L242.509 118.845C242.207 118.845 241.982 118.922 241.833 119.071H240.932C241.081 119.225 241.572 119.523 242.396 119.975C243.221 120.428 244.122 120.88 245.099 121.332C246.077 121.785 247.014 122.237 247.915 122.689C248.816 123.142 249.415 123.521 249.717 123.82L249.041 124.272C249.794 125.028 250.28 125.593 250.505 125.968C250.731 126.348 250.92 126.611 251.069 126.76L251.97 126.534V126.76C251.821 126.914 251.668 126.986 251.519 126.986L251.069 126.76L249.942 126.308C249.492 125.855 248.893 125.557 248.14 125.403V126.082L247.69 126.534L246.789 126.082L244.987 125.629C244.685 125.629 244.536 125.557 244.536 125.403L244.086 125.855C243.64 125.403 243.27 125.177 242.978 125.177C242.685 125.177 242.459 125.105 242.311 124.951H240.977L241.198 126.082C241.347 126.082 241.419 126.308 241.419 126.76L240.977 127.212L240.531 126.76C240.383 126.76 240.162 126.914 239.865 127.212H239.419C239.27 127.212 239.198 126.914 239.198 126.308V126.082L238.752 126.308L238.973 127.891L238.531 128.343L238.085 128.569H236.972C236.972 128.42 236.824 128.343 236.526 128.343L235.193 128.569H234.517L234.292 129.022C234.292 129.175 234.44 129.248 234.742 129.248C234.742 129.098 234.891 129.022 235.193 129.022L235.414 129.248L235.639 129.022L237.635 129.248C237.635 129.401 237.86 129.515 238.301 129.587C238.747 129.664 239.117 129.777 239.414 129.926V129.7L242.077 130.831L242.527 130.605L243.41 131.735L242.973 132.414L242.532 132.866L242.311 132.64V132.188L241.869 132.866L241.653 132.414L241.207 132.866L240.991 132.64L240.549 132.414L240.329 132.64L238.788 132.188L238.567 132.414L238.346 133.318L238.788 133.092C238.639 133.246 238.567 133.622 238.567 134.223L238.346 133.997L238.13 133.545H237.684L237.909 132.188H237.234L237.008 132.64C237.008 132.794 237.152 132.866 237.459 132.866V134.223L237.234 133.997V133.545L237.008 133.771C236.558 134.223 236.22 134.49 235.995 134.562C235.769 134.639 235.657 134.829 235.657 135.128L235.432 134.902L235.206 135.354C234.9 135.657 234.756 136.109 234.756 136.711H234.981V137.389L235.432 137.163L235.657 137.615L236.107 137.389L237.008 137.842C237.152 137.842 237.378 137.692 237.684 137.389C237.828 137.389 238.36 137.543 239.261 137.842L239.711 137.615C239.865 137.769 240.166 137.918 240.617 138.068C241.067 138.221 241.446 138.294 241.748 138.294V138.52L243.329 139.425L243.482 139.651L243.635 139.425V139.651L243.861 140.555H244.311L244.762 140.103L244.086 141.234L243.861 140.782H243.018L241.748 139.877L241.522 140.103C241.522 139.805 241.297 139.651 240.847 139.651L239.946 139.877L239.495 139.425V139.651L238.819 139.425V139.651C238.369 139.651 238.067 139.728 237.918 139.877V139.651L237.468 139.877V139.425L236.792 139.877L237.017 140.555V140.329L237.693 140.555L237.918 140.782H238.144C238.441 140.782 238.594 140.858 238.594 141.008H238.819L239.045 141.234L239.495 140.782L239.045 141.912V141.46L238.819 141.686V141.46L238.369 141.686C240.468 142.591 242.099 143.988 243.252 145.87C244.41 147.756 244.987 149.828 244.987 152.089C244.987 154.654 244.009 157.028 242.058 159.213C240.108 161.402 237.855 162.492 235.301 162.492L232.823 162.718C229.818 162.42 227.268 161.289 225.165 159.326C223.061 157.368 222.011 154.803 222.011 151.637C222.011 149.375 222.687 147.304 224.038 145.418C225.39 143.536 227.115 142.215 229.219 141.46L229.67 141.234L230.12 139.877L229.67 139.651H228.543C228.395 139.651 228.318 139.805 228.318 140.103L227.868 139.877C227.566 140.031 227.34 140.18 227.192 140.329C227.043 140.483 226.818 140.555 226.516 140.555L225.84 141.008V140.782C225.241 140.782 224.939 141.008 224.939 141.46H224.714C224.714 141.614 224.565 141.84 224.263 142.138V141.912L223.137 142.365V143.043C223.137 143.346 222.989 143.495 222.687 143.495H222.236L222.912 142.591H222.687L223.362 142.138L223.137 141.686H223.588L224.047 141.46C224.047 141.161 224.119 141.008 224.277 141.008L224.502 140.782V140.555L224.957 140.329L226.786 139.198L227.471 138.294L227.696 138.52V138.068L228.156 138.294L228.841 137.615V137.389C228.994 137.389 229.26 137.317 229.638 137.163C230.021 137.014 230.665 136.562 231.58 135.806L231.805 135.354C231.805 134.752 231.427 134.449 230.674 134.449L230.224 134.675L229.998 134.449L226.16 135.128H225.466L224.777 134.902L225.237 134.675H225.007L226.611 133.771L227.737 132.866C227.886 132.866 228.71 132.568 230.215 131.962C230.814 131.663 231.49 131.283 232.242 130.831H233.593C233.742 130.831 233.967 130.682 234.269 130.378L233.593 129.7H232.467C232.918 128.646 233.143 127.592 233.143 126.534C233.143 125.177 232.918 124.046 232.467 123.142V122.011L231.566 121.106C231.413 121.106 231.188 120.957 230.89 120.654V120.428C230.44 119.975 230.102 119.79 229.877 119.862C229.652 119.939 229.386 119.826 229.088 119.523L228.638 119.297L229.088 119.071C229.088 118.772 229.386 118.546 229.989 118.392C230.589 118.243 231.039 118.017 231.341 117.714C229.836 117.714 228.863 117.452 228.413 116.922C227.962 116.398 227.435 116.131 226.836 116.131L222.236 117.262C219.984 117.565 217.731 118.243 215.479 119.297L213.677 120.428C211.875 121.332 209.924 122.766 207.82 124.725C207.122 125.376 206.446 126.063 205.797 126.796V122.237L204.671 121.106L204.22 121.785V124.046L203.982 126.76L203.531 126.534C203.531 126.688 203.225 126.76 202.63 126.76C202.63 126.461 202.477 125.855 202.18 124.951L202.405 124.725L202.18 124.046H202.405L202.18 123.368C202.027 123.218 201.954 122.992 201.954 122.689C201.954 122.386 201.873 122.165 201.729 122.011L202.18 122.463L202.63 122.011C203.225 122.011 203.531 121.785 203.531 121.332L204.671 120.428C204.815 120.26 204.896 119.84 204.896 119.17L205.121 118.917C205.121 118.419 204.968 118.166 204.671 118.166L203.995 118.419C203.838 118.252 203.612 118.166 203.315 118.166H202.184C201.432 118.166 200.981 118.243 200.828 118.392V118.166C200.828 117.868 200.526 117.714 199.927 117.714L199.251 118.845H197.895C197.594 118.845 197.445 118.922 197.445 119.071H196.539L196.089 117.415L196.539 117.207L197.445 116.995C197.742 116.995 198.008 116.963 198.233 116.895C198.459 116.827 198.72 116.723 199.026 116.583V116.809L199.702 116.583C199.851 116.737 200.076 116.809 200.378 116.809L201.283 116.357C200.828 115.905 200.526 115.678 200.378 115.678L200.152 115.905L199.702 115.678L199.477 115.452L199.026 115.905H196.769C196.611 115.755 196.386 115.678 196.089 115.678L195.864 115.452L196.769 115C135.811 115 105.181 115.077 104.884 115.226C104.28 115.529 103.83 115.832 103.532 116.131C103.532 116.434 103.758 116.583 104.208 116.583H104.659C105.253 116.583 105.632 116.66 105.785 116.809L106.235 117.035L106.686 116.583L107.136 116.809H111.867C111.867 116.963 112.092 117.035 112.542 117.035L113.443 116.809C113.588 116.963 113.966 117.035 114.57 117.035L115.246 116.809C115.543 117.112 115.768 117.262 115.921 117.262L117.048 117.488C116.597 117.488 116.291 117.565 116.147 117.714V117.94L115.696 117.488L115.471 117.94L114.795 117.488L114.57 117.714H113.443C112.84 117.714 112.461 117.791 112.317 117.94L112.092 117.714H111.867C111.714 117.868 111.038 117.981 109.839 118.053C108.632 118.13 107.884 118.243 107.587 118.392H106.461V118.166L106.235 118.392L105.334 118.618C104.731 118.618 104.055 118.741 103.307 118.985C102.55 119.225 101.843 119.505 101.167 119.826C100.491 120.147 100.154 120.468 100.154 120.79C100.604 121.274 101.199 121.513 101.956 121.513L102.181 121.274L103.532 121.513C104.433 121.839 105.181 121.997 105.785 121.997L107.812 122.237L108.037 122.463L108.488 122.237L108.713 122.689L107.136 123.142C106.082 123.142 105.109 123.445 104.208 124.046C103.307 124.652 101.577 124.951 99.0273 124.951L97 125.403C97.4505 125.855 97.901 126.082 98.3515 126.082H98.5768C98.4236 126.385 98.3515 127.14 98.3515 128.343V131.735C98.6489 132.491 98.7615 133.169 98.6894 133.771C98.6083 134.377 98.8741 134.675 99.4778 134.675V134.902C99.3246 134.902 99.4778 135.092 99.9283 135.467C100.379 135.847 100.748 136.186 101.055 136.485V136.711L101.28 136.937L100.379 137.389C100.226 137.543 100.072 137.656 99.9283 137.728C99.7751 137.805 99.6219 137.995 99.4778 138.294C100.379 138.294 100.901 138.597 101.055 139.198C101.199 139.805 101.505 140.103 101.956 140.103H102.406C102.703 140.103 102.929 140.031 103.082 139.877C103.983 139.877 104.505 139.954 104.659 140.103H105.109C106.605 140.555 108.182 140.782 109.839 140.782H179.893V155.482H144.528L138.897 156.16C133.185 157.218 127.779 159.213 122.679 162.153C117.57 165.093 113.137 168.752 109.389 173.122C105.632 177.495 102.663 182.435 100.491 187.935C98.311 193.439 97.2253 199.283 97.2253 205.462C97.2253 214.358 98.8336 221.935 102.068 228.19C105.294 234.45 109.308 239.611 114.119 243.682C118.922 247.752 124.143 250.769 129.774 252.728C135.406 254.691 140.618 255.74 145.429 255.894H159.62C164.423 255.894 168.63 255.817 172.235 255.668C175.839 255.518 178.614 255.369 180.569 255.215H182.389L186.935 254.537C186.935 254.388 186.781 254.198 186.48 253.972C186.178 253.745 185.421 253.632 184.209 253.632L193.296 252.954L193.07 254.311L193.521 254.763L193.296 255.668H193.521L193.751 255.894L194.206 255.668H193.976L194.206 255.442V253.858L193.976 252.954H194.656L196.008 252.728L195.107 252.049H193.976L194.206 250.918L193.976 250.24C194.129 249.941 194.206 249.186 194.206 247.978L193.98 247.526L194.661 246.622L194.435 246.169L194.661 246.395H195.796L196.026 246.622L195.571 247.074L195.796 247.3H196.026L196.251 247.526H196.026L196.481 247.978L196.251 248.657L196.481 248.883V249.788L196.706 250.014C196.706 250.466 196.629 250.692 196.481 250.692L196.706 251.145C196.706 251.298 196.855 251.371 197.161 251.371L197.616 251.145L197.386 250.918L198.751 250.692L198.301 251.823C197.688 251.823 197.31 251.751 197.161 251.597L196.706 252.728L197.616 252.502L197.386 252.049C197.994 252.049 198.373 251.977 198.526 251.823L198.977 252.049C198.977 252.203 198.828 252.275 198.526 252.275L198.301 252.502L199.661 253.858L200.116 254.537L200.346 254.989H201.702L201.927 255.215L202.378 254.989L202.153 254.537V253.18C202.301 252.881 202.414 252.615 202.491 252.388C202.563 252.162 202.603 251.9 202.603 251.597L201.927 250.692V248.431L201.702 248.205V247.526L201.477 246.848H201.702L201.477 246.622V244.36L201.252 242.551L202.612 242.777V243.455L202.842 243.682C202.842 244.74 202.995 245.418 203.297 245.717H203.527V247.074C203.527 247.526 203.599 247.829 203.752 247.978H203.982L204.432 250.24L204.446 251.597L205.121 251.145L205.347 250.014L205.121 249.788L205.347 248.883C205.347 248.585 205.266 248.358 205.121 248.205V247.074L205.347 246.395C205.194 246.246 204.968 246.169 204.671 246.169L205.797 245.943V242.551C205.941 242.551 206.167 242.402 206.473 242.098C206.473 241.8 206.32 241.646 206.023 241.646L205.797 241.872V219.935H208.289C212.803 219.935 217.236 220.541 221.601 221.745C225.966 222.952 230.062 224.685 233.9 226.946C237.734 229.208 241.117 232.075 244.054 235.54C246.983 239.009 249.28 243.003 250.933 247.526L251.839 250.24C252.136 251.448 252.362 252.316 252.515 252.841C252.663 253.37 253.037 254.238 253.646 255.442L253.871 255.894L254.096 256.12C254.24 256.572 254.465 256.798 254.772 256.798L255.448 256.346V256.572L256.349 258.834L256.578 259.06L257.263 258.608C257.412 258.454 257.488 258.155 257.488 257.703V257.477L257.714 257.251L257.488 256.572V254.763L258.398 254.989L259.308 253.632C259.308 253.334 259.155 253.18 258.853 253.18H258.624L258.853 252.954L259.308 253.18L259.534 253.858L260.218 254.763L260.444 254.537H261.128V254.989L261.809 255.215L261.583 255.894H261.809L261.583 256.12C261.583 256.269 261.737 256.346 262.038 256.346L262.264 257.477C262.412 257.929 262.642 258.155 262.944 258.155V257.929L263.629 257.703L263.858 257.477L264.539 257.703L264.314 257.929C264.314 258.078 264.539 258.155 264.994 258.155V258.608C264.994 258.757 264.687 258.834 264.084 258.834V259.06L266.584 258.834L266.814 259.738L266.584 260.643H266.814L267.044 261.095L267.269 261.322L267.044 261.774L267.724 262V261.548H267.499L267.724 261.095H267.499L267.724 260.417L267.499 259.738L267.724 259.286V258.155H267.499V255.894L267.269 255.668C267.571 255.668 267.724 255.369 267.724 254.763L268.864 254.537L269.089 254.763L268.864 254.989L269.539 255.215L269.314 255.442L269.765 255.668L269.539 255.894L269.99 256.12L269.765 256.346L269.99 256.572V257.025L270.215 257.251L269.99 257.929L270.44 258.382L271.116 258.155L270.891 257.929L271.116 257.703H272.017L271.567 258.382L271.792 258.608H270.44V259.06L270.215 259.286H270.44L270.215 259.512C270.517 259.512 270.742 259.435 270.891 259.286V258.834C271.49 258.834 271.868 258.757 272.017 258.608L272.242 258.834L271.792 259.286L272.242 259.512L272.918 260.191L273.594 260.643C273.594 260.792 273.743 260.869 274.044 260.869V261.095C274.193 261.245 274.572 261.322 275.171 261.322L275.396 261.095V261.322L276.072 260.869H275.846L276.072 259.965L275.621 259.512L276.072 258.608C276.072 258.002 275.77 257.626 275.171 257.477L274.945 255.442L274.72 255.215L274.945 254.989H274.72L274.495 254.085L274.72 253.858L274.27 252.049C273.968 251.145 273.819 250.317 273.819 249.562H273.594L273.819 247.978H272.918L274.044 247.3L274.27 247.526V248.431C274.27 248.734 274.418 248.883 274.72 248.883L275.621 251.597C275.923 252.203 276.22 252.655 276.522 252.954L276.297 253.632L276.973 254.763C276.973 255.066 277.121 255.518 277.423 256.12V257.251L277.874 257.929C278.176 257.929 278.401 257.852 278.549 257.703L278.324 257.025L278.549 256.572V255.442C278.549 255.143 278.473 254.917 278.324 254.763C278.176 254.614 278.099 254.388 278.099 254.085L278.324 253.406L277.423 253.18L277.874 252.728L278.324 252.954ZM118.85 117.262C118.696 117.415 118.471 117.488 118.174 117.488H117.273C117.417 117.488 117.642 117.338 117.949 117.035L118.174 116.809H118.85V117.035C118.994 117.189 119.147 117.338 119.3 117.488L118.85 117.262ZM147.231 230.112C146.925 229.963 145.952 229.886 144.303 229.886C137.392 228.683 132.139 225.743 128.535 221.066C124.931 216.394 123.129 211.269 123.129 205.688C123.129 199.355 124.931 194.118 128.535 189.97C132.139 185.827 136.789 183.072 142.501 181.715L146.33 181.263H179.893V230.112H147.231ZM174.037 234.409L172.685 234.635C172.081 234.337 171.334 234.183 170.433 234.183L169.531 233.957L168.856 234.862H168.63L167.955 233.731H169.306L171.108 233.957C171.252 233.808 171.446 233.731 171.671 233.731C171.897 233.731 172.081 233.582 172.235 233.278H177.866L180.064 233.052L179.893 234.409C179.587 234.563 177.866 234.635 174.712 234.635L174.037 234.409ZM183.047 251.371H180.794L181.47 250.692L178.316 249.788C178.01 249.638 177.415 249.562 176.514 249.562C176.208 249.562 175.983 249.638 175.839 249.788V250.014C175.532 250.014 175.307 249.941 175.163 249.788L176.289 249.109L178.542 249.335C178.686 249.335 179.217 249.299 180.118 249.222C181.019 249.15 181.542 249.037 181.695 248.883H181.92L181.47 248.431L181.695 247.752H182.371C182.371 248.657 182.515 249.412 182.821 250.014V250.692L183.047 250.918V251.371ZM190.48 251.823H190.255C189.948 251.674 189.426 251.597 188.678 251.597L183.272 251.371C183.272 251.072 183.416 250.918 183.722 250.918V250.466C184.02 250.168 184.06 249.562 183.835 248.657C183.61 247.752 184.398 247.3 186.2 247.3L188.453 247.074V247.752L188.678 249.335L188.903 250.24L190.03 250.014L190.48 249.562L190.931 250.014L190.705 250.466C190.705 250.62 190.931 250.692 191.381 250.692L191.606 251.145L190.48 251.823ZM198.364 125.403C198.364 125.706 198.283 125.855 198.139 125.855V126.082H197.913L197.688 125.629L197.913 124.498L198.589 124.272L198.364 125.403ZM202.612 241.872C202.013 241.872 201.635 241.8 201.486 241.646L201.261 241.194C201.562 240.895 201.711 240.669 201.711 240.515V240.063L201.936 239.837L201.035 239.385L202.387 239.158L201.936 239.837L202.162 240.289C202.162 240.443 202.31 240.669 202.612 240.968V241.872ZM203.968 128.795C203.666 128.795 203.518 128.949 203.518 129.248L203.743 129.474L203.518 131.509L203.743 132.64L203.292 132.866C203.144 133.02 203.067 133.395 203.067 133.997C203.067 134.3 203.216 134.603 203.518 134.902H203.968L203.518 135.354L203.743 135.58L203.292 136.485L203.067 136.258V135.806L203.292 135.58C203.144 135.431 203.067 135.205 203.067 134.902V134.449L202.842 134.223L203.067 133.997L202.842 133.092L203.067 132.866C203.067 132.568 202.991 132.414 202.842 132.414L203.067 130.605C203.018 130.555 202.977 130.496 202.946 130.428C202.873 130.293 202.842 130.125 202.842 129.926L203.067 129.7L202.842 129.474L203.067 127.665H203.968L203.743 128.117C203.743 128.42 203.82 128.646 203.968 128.795ZM207.144 196.868L206.018 197.094V196.868H205.797C205.946 196.863 206.171 196.714 206.469 196.415L206.694 196.189H207.144V196.868Z" fill="url(#paint1_radial_2_50)"/>
</g>
<defs>
<radialGradient id="paint0_radial_2_50" cx="0" cy="0" r="1" gradientUnits="userSpaceOnUse" gradientTransform="translate(188 188) rotate(90) scale(188)">
<stop stop-color="#270606"/>
<stop offset="1"/>
</radialGradient>
<radialGradient id="paint1_radial_2_50" cx="0" cy="0" r="1" gradientUnits="userSpaceOnUse" gradientTransform="translate(188 188.5) rotate(90) scale(73.5 91)">
<stop stop-color="#FF0000"/>
<stop offset="1" stop-color="#750000"/>
</radialGradient>
<clipPath id="clip0_2_50">
<rect width="182" height="147" fill="white" transform="translate(97 115)"/>
</clipPath>
</defs>
</svg>
