<svg width="182" height="147" viewBox="0 0 182 147" fill="none" xmlns="http://www.w3.org/2000/svg">
<g clip-path="url(#clip0_2_33)">
<path d="M181.324 137.954L181.775 138.632L182 138.858C180.95 131.925 178.959 125.176 176.022 118.618C173.089 112.059 169.242 106.143 164.493 100.865C159.74 95.5907 154.159 91.14 147.748 87.5215C141.333 83.9031 134.282 81.4923 126.588 80.2846L124.56 79.8323C122.177 79.4117 116.924 79.1855 108.797 79.1584V61.2741C111.762 64.4991 115.276 67.1406 119.33 69.2031C123.47 71.3154 128.029 72.7492 132.998 73.5H140.684C145.95 73.0477 150.658 71.6184 154.798 69.2031C158.943 66.7923 162.403 63.8523 165.192 60.3831C167.98 56.9184 170.129 53.1462 171.634 49.0754C173.139 45.0046 173.891 41.0107 173.891 37.0892C173.891 32.8692 173.364 29.0246 172.301 25.5554C171.237 22.0907 169.8 19.0376 167.98 16.3962C166.16 13.7592 164.115 11.5338 161.84 9.72462C159.569 7.91538 157.222 6.4092 154.794 5.20154L154.343 4.74923C153.429 4.74923 152.897 4.67686 152.749 4.52308C152.595 4.37382 151.915 4.14766 150.708 3.84462L150.478 4.29692C150.627 4.59997 150.857 4.86231 151.158 5.08846C151.465 5.31462 151.613 5.50458 151.613 5.65385L150.708 5.20154L149.338 4.74923L145.509 3.84462C145.207 3.84462 144.982 3.92151 144.833 4.07077H143.932C144.081 4.22455 144.572 4.52308 145.396 4.97538C146.221 5.42769 147.122 5.88 148.099 6.33231C149.077 6.78462 150.014 7.23692 150.915 7.68923C151.816 8.14154 152.415 8.52148 152.717 8.82L152.041 9.27231C152.794 10.0277 153.28 10.593 153.505 10.9685C153.731 11.3484 153.92 11.6107 154.069 11.76L154.97 11.5338V11.76C154.821 11.9138 154.668 11.9862 154.519 11.9862L154.069 11.76L152.942 11.3077C152.492 10.8554 151.893 10.5569 151.14 10.4031V11.0815L150.69 11.5338L149.789 11.0815L147.987 10.6292C147.685 10.6292 147.536 10.5569 147.536 10.4031L147.086 10.8554C146.64 10.4031 146.27 10.1769 145.978 10.1769C145.685 10.1769 145.459 10.1046 145.311 9.95077H143.977L144.198 11.0815C144.347 11.0815 144.419 11.3077 144.419 11.76L143.977 12.2123L143.531 11.76C143.383 11.76 143.162 11.9138 142.865 12.2123H142.419C142.27 12.2123 142.198 11.9138 142.198 11.3077V11.0815L141.752 11.3077L141.973 12.8908L141.531 13.3431L141.085 13.5692H139.972C139.972 13.42 139.824 13.3431 139.526 13.3431L138.193 13.5692H137.517L137.292 14.0215C137.292 14.1753 137.44 14.2477 137.742 14.2477C137.742 14.0984 137.891 14.0215 138.193 14.0215L138.414 14.2477L138.639 14.0215L140.635 14.2477C140.635 14.4015 140.86 14.5146 141.301 14.5869C141.747 14.6638 142.117 14.7769 142.414 14.9262V14.7L145.077 15.8308L145.527 15.6046L146.41 16.7354L145.973 17.4138L145.532 17.8662L145.311 17.64V17.1877L144.869 17.8662L144.653 17.4138L144.207 17.8662L143.991 17.64L143.549 17.4138L143.329 17.64L141.788 17.1877L141.567 17.4138L141.346 18.3185L141.788 18.0923C141.639 18.2461 141.567 18.6215 141.567 19.2231L141.346 18.9969L141.13 18.5446H140.684L140.909 17.1877H140.234L140.008 17.64C140.008 17.7938 140.152 17.8662 140.459 17.8662V19.2231L140.234 18.9969V18.5446L140.008 18.7708C139.558 19.2231 139.22 19.4899 138.995 19.5623C138.769 19.6392 138.657 19.8292 138.657 20.1277L138.432 19.9015L138.206 20.3538C137.9 20.6569 137.756 21.1092 137.756 21.7108H137.981V22.3892L138.432 22.1631L138.657 22.6154L139.107 22.3892L140.008 22.8415C140.152 22.8415 140.378 22.6923 140.684 22.3892C140.828 22.3892 141.36 22.543 142.261 22.8415L142.711 22.6154C142.865 22.7692 143.166 22.9184 143.617 23.0677C144.067 23.2215 144.446 23.2938 144.748 23.2938V23.52L146.329 24.4246L146.482 24.6508L146.635 24.4246V24.6508L146.861 25.5554H147.311L147.762 25.1031L147.086 26.2338L146.861 25.7815H146.018L144.748 24.8769L144.522 25.1031C144.522 24.8046 144.297 24.6508 143.847 24.6508L142.946 24.8769L142.495 24.4246V24.6508L141.819 24.4246V24.6508C141.369 24.6508 141.067 24.7277 140.918 24.8769V24.6508L140.468 24.8769V24.4246L139.792 24.8769L140.017 25.5554V25.3292L140.693 25.5554L140.918 25.7815H141.144C141.441 25.7815 141.594 25.8584 141.594 26.0077H141.819L142.045 26.2338L142.495 25.7815L142.045 26.9123V26.46L141.819 26.6862V26.46L141.369 26.6862C143.468 27.5908 145.099 28.9884 146.252 30.87C147.41 32.7561 147.987 34.8277 147.987 37.0892C147.987 39.6538 147.009 42.0284 145.058 44.2131C143.108 46.4022 140.855 47.4923 138.301 47.4923L135.823 47.7185C132.818 47.4199 130.268 46.2892 128.165 44.3262C126.061 42.3677 125.011 39.8031 125.011 36.6369C125.011 34.3754 125.687 32.3038 127.038 30.4177C128.39 28.5361 130.115 27.2154 132.219 26.46L132.67 26.2338L133.12 24.8769L132.67 24.6508H131.543C131.395 24.6508 131.318 24.8046 131.318 25.1031L130.868 24.8769C130.566 25.0307 130.34 25.18 130.192 25.3292C130.043 25.483 129.818 25.5554 129.516 25.5554L128.84 26.0077V25.7815C128.241 25.7815 127.939 26.0077 127.939 26.46H127.714C127.714 26.6138 127.565 26.8399 127.263 27.1385V26.9123L126.137 27.3646V28.0431C126.137 28.3461 125.989 28.4954 125.687 28.4954H125.236L125.912 27.5908H125.687L126.362 27.1385L126.137 26.6862H126.588L127.047 26.46C127.047 26.1615 127.119 26.0077 127.277 26.0077L127.502 25.7815V25.5554L127.957 25.3292L129.786 24.1985L130.471 23.2938L130.696 23.52V23.0677L131.156 23.2938L131.841 22.6154V22.3892C131.994 22.3892 132.26 22.3169 132.638 22.1631C133.021 22.0138 133.665 21.5615 134.58 20.8062L134.805 20.3538C134.805 19.7523 134.427 19.4492 133.674 19.4492L133.224 19.6754L132.998 19.4492L129.16 20.1277H128.466L127.777 19.9015L128.237 19.6754H128.007L129.611 18.7708L130.737 17.8662C130.886 17.8662 131.71 17.5676 133.215 16.9615C133.814 16.663 134.49 16.2831 135.242 15.8308H136.593C136.742 15.8308 136.967 15.6815 137.269 15.3785L136.593 14.7H135.467C135.918 13.6461 136.143 12.5922 136.143 11.5338C136.143 10.1769 135.918 9.04615 135.467 8.14154V7.01077L134.566 6.10615C134.413 6.10615 134.188 5.95689 133.89 5.65385V5.42769C133.44 4.97538 133.102 4.78994 132.877 4.86231C132.652 4.9392 132.386 4.82612 132.088 4.52308L131.638 4.29692L132.088 4.07077C132.088 3.77225 132.386 3.54609 132.989 3.39231C133.589 3.24305 134.039 3.01689 134.341 2.71385C132.836 2.71385 131.863 2.45151 131.413 1.92231C130.962 1.39763 130.435 1.13077 129.836 1.13077L125.236 2.26154C122.984 2.56458 120.731 3.24305 118.479 4.29692L116.677 5.42769C114.875 6.33231 112.924 7.76612 110.82 9.72462C110.122 10.3759 109.446 11.0634 108.797 11.7962V7.23692L107.671 6.10615L107.22 6.78462V9.04615L106.982 11.76L106.531 11.5338C106.531 11.6876 106.225 11.76 105.63 11.76C105.63 11.4615 105.477 10.8554 105.18 9.95077L105.405 9.72462L105.18 9.04615H105.405L105.18 8.36769C105.027 8.21843 104.954 7.99228 104.954 7.68923C104.954 7.38618 104.873 7.16455 104.729 7.01077L105.18 7.46308L105.63 7.01077C106.225 7.01077 106.531 6.78462 106.531 6.33231L107.671 5.42769C107.815 5.26034 107.896 4.83969 107.896 4.17028L108.121 3.91698C108.121 3.41945 107.968 3.16615 107.671 3.16615L106.995 3.41945C106.838 3.25209 106.612 3.16615 106.315 3.16615H105.184C104.432 3.16615 103.981 3.24305 103.828 3.39231V3.16615C103.828 2.86763 103.526 2.71385 102.927 2.71385L102.251 3.84462H100.895C100.594 3.84462 100.445 3.92151 100.445 4.07077H99.5393L99.0888 2.41532L99.5393 2.20726L100.445 1.99468C100.742 1.99468 101.008 1.96302 101.233 1.89517C101.459 1.82732 101.72 1.72329 102.026 1.58308V1.80923L102.702 1.58308C102.851 1.73686 103.076 1.80923 103.378 1.80923L104.283 1.35692C103.828 0.904615 103.526 0.678462 103.378 0.678462L103.152 0.904615L102.702 0.678462L102.477 0.452308L102.026 0.904615H99.7691C99.6114 0.755354 99.3862 0.678462 99.0888 0.678462L98.8636 0.452308L99.7691 0C38.8111 0 8.18119 0.0768923 7.88386 0.226154C7.28018 0.5292 6.82967 0.832246 6.53234 1.13077C6.53234 1.43382 6.75759 1.58308 7.2081 1.58308H7.65861C8.25327 1.58308 8.6317 1.65997 8.78487 1.80923L9.23538 2.03538L9.68588 1.58308L10.1364 1.80923H14.8667C14.8667 1.96302 15.092 2.03538 15.5425 2.03538L16.4435 1.80923C16.5876 1.96302 16.9661 2.03538 17.5697 2.03538L18.2455 1.80923C18.5428 2.11228 18.7681 2.26154 18.9213 2.26154L20.0475 2.48769C19.597 2.48769 19.2907 2.56458 19.1465 2.71385V2.94L18.696 2.48769L18.4708 2.94L17.795 2.48769L17.5697 2.71385H16.4435C15.8398 2.71385 15.4614 2.79074 15.3172 2.94L15.092 2.71385H14.8667C14.7135 2.86763 14.0378 2.98071 12.8394 3.05308C11.6321 3.12997 10.8842 3.24305 10.5869 3.39231H9.46063V3.16615L9.23538 3.39231L8.33436 3.61846C7.73069 3.61846 7.05493 3.74058 6.30709 3.98483C5.55024 4.22455 4.84294 4.50498 4.16718 4.82612C3.49142 5.14726 3.15354 5.4684 3.15354 5.78954C3.60405 6.27351 4.19872 6.51323 4.95557 6.51323L5.18082 6.27351L6.53234 6.51323C7.43335 6.83889 8.18119 6.9972 8.78487 6.9972L10.8121 7.23692L11.0374 7.46308L11.4879 7.23692L11.7132 7.68923L10.1364 8.14154C9.08221 8.14154 8.10911 8.44458 7.2081 9.04615C6.30709 9.65225 4.57714 9.95077 2.02728 9.95077L0 10.4031C0.450506 10.8554 0.901012 11.0815 1.35152 11.0815H1.57677C1.4236 11.3846 1.35152 12.1399 1.35152 13.3431V16.7354C1.64885 17.4907 1.76148 18.1692 1.6894 18.7708C1.60831 19.3769 1.87411 19.6754 2.47778 19.6754V19.9015C2.32461 19.9015 2.47778 20.0915 2.92829 20.4669C3.3788 20.8469 3.74821 21.1861 4.05456 21.4846V21.7108L4.27981 21.9369L3.3788 22.3892C3.22562 22.543 3.07245 22.6561 2.92829 22.7285C2.77512 22.8054 2.62195 22.9953 2.47778 23.2938C3.3788 23.2938 3.90138 23.5969 4.05456 24.1985C4.19872 24.8046 4.50506 25.1031 4.95557 25.1031H5.40607C5.70341 25.1031 5.92866 25.0307 6.08183 24.8769C6.98285 24.8769 7.50543 24.9538 7.65861 25.1031H8.10911C9.60479 25.5554 11.1816 25.7815 12.8394 25.7815H82.8931V40.4815H47.5284L41.8971 41.16C36.1847 42.2184 30.7786 44.2131 25.6789 47.1531C20.5701 50.0931 16.1371 53.7522 12.3889 58.1215C8.6317 62.4954 5.66286 67.4346 3.49142 72.9346C1.31097 78.4392 0.225253 84.283 0.225253 90.4615C0.225253 99.3584 1.83356 106.935 5.06819 113.19C8.29382 119.45 12.3078 124.611 17.1192 128.682C21.9216 132.752 27.143 135.769 32.7743 137.728C38.4057 139.691 43.618 140.74 48.4294 140.894H62.6204C67.4228 140.894 71.6305 140.817 75.2345 140.668C78.8386 140.518 81.6137 140.369 83.5689 140.215H85.3889L89.9346 139.537C89.9346 139.388 89.7814 139.198 89.4795 138.972C89.1777 138.745 88.4209 138.632 87.209 138.632L96.2957 137.954L96.0704 139.311L96.521 139.763L96.2957 140.668H96.521L96.7507 140.894L97.2057 140.668H96.976L97.2057 140.442V138.858L96.976 137.954H97.6562L99.0078 137.728L98.1067 137.049H96.976L97.2057 135.918L96.976 135.24C97.1291 134.941 97.2057 134.186 97.2057 132.978L96.9805 132.526L97.6607 131.622L97.4355 131.169L97.6607 131.395H98.796L99.0258 131.622L98.5708 132.074L98.796 132.3H99.0258L99.251 132.526H99.0258L99.4808 132.978L99.251 133.657L99.4808 133.883V134.788L99.706 135.014C99.706 135.466 99.6295 135.692 99.4808 135.692L99.706 136.145C99.706 136.298 99.8547 136.371 100.161 136.371L100.616 136.145L100.386 135.918L101.751 135.692L101.301 136.823C100.688 136.823 100.31 136.751 100.161 136.597L99.706 137.728L100.616 137.502L100.386 137.049C100.994 137.049 101.373 136.977 101.526 136.823L101.977 137.049C101.977 137.203 101.828 137.275 101.526 137.275L101.301 137.502L102.661 138.858L103.116 139.537L103.346 139.989H104.702L104.927 140.215L105.378 139.989L105.153 139.537V138.18C105.301 137.881 105.414 137.615 105.491 137.388C105.563 137.162 105.603 136.9 105.603 136.597L104.927 135.692V133.431L104.702 133.205V132.526L104.477 131.848H104.702L104.477 131.622V129.36L104.252 127.551L105.612 127.777V128.455L105.842 128.682C105.842 129.74 105.995 130.418 106.297 130.717H106.527V132.074C106.527 132.526 106.599 132.829 106.752 132.978H106.982L107.432 135.24L107.446 136.597L108.121 136.145L108.347 135.014L108.121 134.788L108.347 133.883C108.347 133.585 108.266 133.358 108.121 133.205V132.074L108.347 131.395C108.194 131.246 107.968 131.169 107.671 131.169L108.797 130.943V127.551C108.941 127.551 109.167 127.402 109.473 127.098C109.473 126.8 109.32 126.646 109.023 126.646L108.797 126.872V104.935H111.289C115.803 104.935 120.236 105.541 124.601 106.745C128.966 107.952 133.062 109.685 136.9 111.946C140.734 114.208 144.117 117.075 147.054 120.54C149.983 124.009 152.28 128.003 153.933 132.526L154.839 135.24C155.136 136.448 155.362 137.316 155.515 137.841C155.663 138.37 156.037 139.238 156.646 140.442L156.871 140.894L157.096 141.12C157.24 141.572 157.465 141.798 157.772 141.798L158.448 141.346V141.572L159.349 143.834L159.578 144.06L160.263 143.608C160.412 143.454 160.488 143.155 160.488 142.703V142.477L160.714 142.251L160.488 141.572V139.763L161.398 139.989L162.308 138.632C162.308 138.334 162.155 138.18 161.853 138.18H161.624L161.853 137.954L162.308 138.18L162.534 138.858L163.218 139.763L163.444 139.537H164.128V139.989L164.809 140.215L164.583 140.894H164.809L164.583 141.12C164.583 141.269 164.737 141.346 165.038 141.346L165.264 142.477C165.412 142.929 165.642 143.155 165.944 143.155V142.929L166.629 142.703L166.858 142.477L167.539 142.703L167.314 142.929C167.314 143.078 167.539 143.155 167.994 143.155V143.608C167.994 143.757 167.687 143.834 167.084 143.834V144.06L169.584 143.834L169.814 144.738L169.584 145.643H169.814L170.044 146.095L170.269 146.322L170.044 146.774L170.724 147V146.548H170.499L170.724 146.095H170.499L170.724 145.417L170.499 144.738L170.724 144.286V143.155H170.499V140.894L170.269 140.668C170.571 140.668 170.724 140.369 170.724 139.763L171.864 139.537L172.089 139.763L171.864 139.989L172.539 140.215L172.314 140.442L172.765 140.668L172.539 140.894L172.99 141.12L172.765 141.346L172.99 141.572V142.025L173.215 142.251L172.99 142.929L173.44 143.382L174.116 143.155L173.891 142.929L174.116 142.703H175.017L174.567 143.382L174.792 143.608H173.44V144.06L173.215 144.286H173.44L173.215 144.512C173.517 144.512 173.742 144.435 173.891 144.286V143.834C174.49 143.834 174.868 143.757 175.017 143.608L175.242 143.834L174.792 144.286L175.242 144.512L175.918 145.191L176.594 145.643C176.594 145.792 176.743 145.869 177.044 145.869V146.095C177.193 146.245 177.572 146.322 178.171 146.322L178.396 146.095V146.322L179.072 145.869H178.846L179.072 144.965L178.621 144.512L179.072 143.608C179.072 143.002 178.77 142.626 178.171 142.477L177.945 140.442L177.72 140.215L177.945 139.989H177.72L177.495 139.085L177.72 138.858L177.27 137.049C176.968 136.145 176.819 135.317 176.819 134.562H176.594L176.819 132.978H175.918L177.044 132.3L177.27 132.526V133.431C177.27 133.734 177.418 133.883 177.72 133.883L178.621 136.597C178.923 137.203 179.22 137.655 179.522 137.954L179.297 138.632L179.973 139.763C179.973 140.066 180.121 140.518 180.423 141.12V142.251L180.874 142.929C181.176 142.929 181.401 142.852 181.549 142.703L181.324 142.025L181.549 141.572V140.442C181.549 140.143 181.473 139.917 181.324 139.763C181.176 139.614 181.099 139.388 181.099 139.085L181.324 138.406L180.423 138.18L180.874 137.728L181.324 137.954ZM21.8496 2.26154C21.6964 2.41532 21.4711 2.48769 21.1738 2.48769H20.2728C20.4169 2.48769 20.6422 2.33843 20.9485 2.03538L21.1738 1.80923H21.8496V2.03538C21.9937 2.18917 22.1469 2.33843 22.3001 2.48769L21.8496 2.26154ZM50.2314 115.112C49.9251 114.963 48.952 114.886 47.3032 114.886C40.3924 113.683 35.1395 110.743 31.5354 106.066C27.9314 101.394 26.1294 96.2692 26.1294 90.6877C26.1294 84.3554 27.9314 79.1177 31.5354 74.97C35.1395 70.8269 39.7887 68.0723 45.5011 66.7154L49.3304 66.2631H82.8931V115.112H50.2314ZM77.0366 119.409L75.685 119.635C75.0814 119.337 74.3335 119.183 73.4325 119.183L72.5315 118.957L71.8557 119.862H71.6305L70.9547 118.731H72.3062L74.1083 118.957C74.2524 118.808 74.4462 118.731 74.6714 118.731C74.8967 118.731 75.0814 118.582 75.2345 118.278H80.8659L83.0643 118.052L82.8931 119.409C82.5868 119.563 80.8659 119.635 77.7123 119.635L77.0366 119.409ZM86.0467 136.371H83.7942L84.4699 135.692L81.3164 134.788C81.01 134.638 80.4154 134.562 79.5143 134.562C79.208 134.562 78.9827 134.638 78.8386 134.788V135.014C78.5322 135.014 78.307 134.941 78.1628 134.788L79.2891 134.109L81.5416 134.335C81.6858 134.335 82.2174 134.299 83.1184 134.222C84.0194 134.15 84.542 134.037 84.6952 133.883H84.9204L84.4699 133.431L84.6952 132.752H85.3709C85.3709 133.657 85.5151 134.412 85.8214 135.014V135.692L86.0467 135.918V136.371ZM93.48 136.823H93.2548C92.9484 136.674 92.4259 136.597 91.678 136.597L86.2719 136.371C86.2719 136.072 86.4161 135.918 86.7224 135.918V135.466C87.0198 135.168 87.0603 134.562 86.8351 133.657C86.6098 132.752 87.3982 132.3 89.2002 132.3L91.4528 132.074V132.752L91.678 134.335L91.9033 135.24L93.0295 135.014L93.48 134.562L93.9305 135.014L93.7053 135.466C93.7053 135.62 93.9305 135.692 94.3811 135.692L94.6063 136.145L93.48 136.823ZM101.364 10.4031C101.364 10.7061 101.283 10.8554 101.139 10.8554V11.0815H100.913L100.688 10.6292L100.913 9.49846L101.589 9.27231L101.364 10.4031ZM105.612 126.872C105.013 126.872 104.635 126.8 104.486 126.646L104.261 126.194C104.562 125.895 104.711 125.669 104.711 125.515V125.063L104.936 124.837L104.035 124.385L105.387 124.158L104.936 124.837L105.162 125.289C105.162 125.443 105.31 125.669 105.612 125.968V126.872ZM106.968 13.7954C106.666 13.7954 106.518 13.9492 106.518 14.2477L106.743 14.4738L106.518 16.5092L106.743 17.64L106.292 17.8662C106.144 18.0199 106.067 18.3954 106.067 18.9969C106.067 19.3 106.216 19.603 106.518 19.9015H106.968L106.518 20.3538L106.743 20.58L106.292 21.4846L106.067 21.2585V20.8062L106.292 20.58C106.144 20.4307 106.067 20.2046 106.067 19.9015V19.4492L105.842 19.2231L106.067 18.9969L105.842 18.0923L106.067 17.8662C106.067 17.5676 105.991 17.4138 105.842 17.4138L106.067 15.6046C106.018 15.5549 105.977 15.4961 105.946 15.4282C105.873 15.2925 105.842 15.1252 105.842 14.9262L106.067 14.7L105.842 14.4738L106.067 12.6646H106.968L106.743 13.1169C106.743 13.42 106.82 13.6461 106.968 13.7954ZM110.144 81.8677L109.018 82.0938V81.8677H108.797C108.946 81.8632 109.171 81.7139 109.469 81.4154L109.694 81.1892H110.144V81.8677Z" fill="url(#paint0_radial_2_33)"/>
</g>
<defs>
<radialGradient id="paint0_radial_2_33" cx="0" cy="0" r="1" gradientUnits="userSpaceOnUse" gradientTransform="translate(91 73.5) rotate(90) scale(73.5 91)">
<stop stop-color="#FF0000"/>
<stop offset="1" stop-color="#750000"/>
</radialGradient>
<clipPath id="clip0_2_33">
<rect width="182" height="147" fill="white"/>
</clipPath>
</defs>
</svg>
